<?xml version="1.0" encoding="utf-8"?>
<!-- Generator: Adobe Illustrator 26.0.3, SVG Export Plug-In . SVG Version: 6.00 Build 0)  -->
<svg version="1.1" id="Capa_1" xmlns="http://www.w3.org/2000/svg" xmlns:xlink="http://www.w3.org/1999/xlink" x="0px" y="0px"
	 viewBox="0 0 250 250" style="enable-background:new 0 0 250 250;" xml:space="preserve">
<style type="text/css">
	.st0{fill:url(#SVGID_1_);}
	.st1{fill:#BECEEB;}
	.st2{fill:url(#SVGID_00000112607095574927760120000000112660526220620939_);}
	.st3{fill:#95B0DD;}
	.st4{opacity:0.3;}
	.st5{fill:url(#SVGID_00000183961415044878195450000010656997667172931487_);}
	.st6{fill:#8093CA;}
	.st7{fill:url(#SVGID_00000049223932907156775070000005025954997692066189_);}
	.st8{fill:url(#SVGID_00000092426608144537469670000009650731154144391336_);}
	.st9{fill:url(#SVGID_00000178194367976574276100000002103575241167075251_);}
	.st10{fill:#FFFFFF;}
	.st11{fill:url(#SVGID_00000006678975539146930470000006168238127444231608_);}
	.st12{opacity:0.5;fill:#FFFFFF;}
	.st13{fill:url(#SVGID_00000109708165653169362960000013954158007781348768_);}
	.st14{fill:url(#SVGID_00000137825811482140340360000000435076175759652239_);}
	.st15{fill:url(#SVGID_00000119808059298199165220000006974259877381065630_);}
	.st16{fill:url(#SVGID_00000057114482274234574150000016411374641085232512_);}
	.st17{fill:url(#SVGID_00000071559695791122251920000004824107418323176371_);}
	.st18{fill:url(#SVGID_00000039844609080054417170000007434707929639637890_);}
	.st19{fill-rule:evenodd;clip-rule:evenodd;fill:url(#SVGID_00000000196312970089802750000007073932167875784888_);}
	.st20{fill-rule:evenodd;clip-rule:evenodd;fill:url(#SVGID_00000044857552154310224660000006366225520759052974_);}
	.st21{fill-rule:evenodd;clip-rule:evenodd;fill:url(#SVGID_00000083778689237559972520000005892901418884477341_);}
	.st22{fill-rule:evenodd;clip-rule:evenodd;fill:url(#SVGID_00000036226283310737075610000001390020709637006989_);}
	.st23{fill-rule:evenodd;clip-rule:evenodd;fill:url(#SVGID_00000175324879525309112370000000821566130770613927_);}
	.st24{fill-rule:evenodd;clip-rule:evenodd;fill:url(#SVGID_00000183940036901169706910000014109245905095568546_);}
	.st25{fill:url(#SVGID_00000054243763992650253370000016441132925995298177_);}
	.st26{fill:url(#SVGID_00000148655095077839725670000008544797140764004795_);}
	.st27{fill:url(#SVGID_00000031890261540694338400000002397762727014029489_);}
	.st28{fill:url(#SVGID_00000119107257699835585700000004478729800794995378_);}
	.st29{fill:url(#SVGID_00000153687586652795592200000007600957185394328249_);}
	.st30{fill:url(#SVGID_00000155108295072355962150000001340496786875987841_);}
	.st31{fill:url(#SVGID_00000050637086428341469050000014099329825291843501_);}
	.st32{fill:url(#SVGID_00000063634524757126498920000008299957500555327669_);}
	.st33{fill:url(#SVGID_00000093880723424682393240000003417049404978188437_);}
	.st34{fill:url(#SVGID_00000043435154154312336500000011775218221305716365_);}
	.st35{fill:url(#SVGID_00000093155582296193578410000010028958758529661071_);}
	.st36{fill:url(#SVGID_00000100359415609628412600000009681635151867278994_);}
	.st37{fill:url(#SVGID_00000144311833838851892250000002101382515272043454_);}
	.st38{fill:url(#SVGID_00000052827208312978737540000001167291543501850014_);}
	.st39{fill:url(#SVGID_00000096029299376027708630000002434513798312176031_);}
	.st40{opacity:0.51;fill:url(#SVGID_00000129921082954140174720000005802337916478300804_);}
	.st41{fill:url(#SVGID_00000053506204838699252320000016839300976937447320_);}
	.st42{fill:url(#SVGID_00000176739665399915458900000002246434292278304674_);}
	.st43{fill:url(#SVGID_00000169516963788738856390000012738310630375183274_);}
	.st44{opacity:0.7;fill:#FFFFFF;}
	.st45{fill:url(#SVGID_00000172424574803266122550000006322839383791963552_);}
	.st46{fill:url(#SVGID_00000158711333881650642840000016374643989278744504_);}
	.st47{fill:url(#SVGID_00000163039464058865477870000005210611540354943401_);}
	.st48{fill:url(#SVGID_00000052103263154720957530000009117110944769389726_);}
	.st49{fill:url(#SVGID_00000034786787271404995720000018396639987146131075_);}
	.st50{fill:url(#SVGID_00000062897440611987705130000003620565065221548478_);}
	.st51{fill:url(#SVGID_00000010292840172901975050000010663149560894275993_);}
	.st52{fill:url(#SVGID_00000153669055340040312510000003724069480185005454_);}
	.st53{fill:url(#SVGID_00000047770574806587718850000004828409271980672394_);}
	.st54{fill:url(#SVGID_00000127742062870411883960000008569331200591442599_);}
	.st55{fill:url(#SVGID_00000102506313912133107350000006305180254756043433_);}
	.st56{fill:url(#SVGID_00000065062836622403220520000003240101738196174001_);}
	.st57{fill:url(#SVGID_00000119093587986648414300000012243538827660058030_);}
	.st58{fill:url(#SVGID_00000041998492040173701260000004856879295713440163_);}
	.st59{fill:url(#SVGID_00000119806415019972741920000014310468008846964631_);}
	.st60{fill:url(#SVGID_00000078037408167667848040000005704126889694896307_);}
	.st61{fill:url(#SVGID_00000083065110377335999720000016348505405895241653_);}
	.st62{fill:url(#SVGID_00000035497109105115819610000003077744668882269361_);}
	.st63{fill:url(#SVGID_00000089538548054462782730000017358140549385003685_);}
	.st64{fill:url(#SVGID_00000148653838898956797860000018059586019259233435_);}
</style>
<g>
	<linearGradient id="SVGID_1_" gradientUnits="userSpaceOnUse" x1="257.9561" y1="276.5916" x2="80.946" y2="85.5331">
		<stop  offset="0" style="stop-color:#DAE1F3"/>
		<stop  offset="1" style="stop-color:#E9EFFA"/>
	</linearGradient>
	<path class="st0" d="M233.29,167.71c-24.32,56.85-88.53,81.27-138.83,77.11c-13.74-1.14-41.37-3.42-62.95-23.83
		C-9.93,181.8-3.55,99.89,36.12,51.66c5.11-6.21,40.47-47.82,95.57-47.26c40.34,0.41,68.66,23.2,72.1,26.04
		c4.35,3.59,13.94,12.11,22.59,25.63C246.7,87.84,248.49,132.19,233.29,167.71z"/>
	<g>
		<path class="st1" d="M73.03,112.18c-3.09-11.16-0.52-24.71,0.1-36.98c0.33-6.49,0.08-12.86-1.71-19.14
			c-1.78-6.25-5.59-12.77-3.6-19.45c4.03-13.45,17.94-9.21,26.66-0.5c10.12,10.11,14.71,28.07,19.73,41.71
			c3.03,8.23,7.1,16.55,9.19,25.05c3.47,14.09,1.43,24.4-4.61,31.92c-5.79,7.22-15.62,9.75-24.18,6.24
			C86.88,137.88,78.01,130.18,73.03,112.18z"/>
		
			<linearGradient id="SVGID_00000178195034637938414850000010062878037889625502_" gradientUnits="userSpaceOnUse" x1="-2896.2075" y1="15.881" x2="-2889.636" y2="241.0642" gradientTransform="matrix(0.9993 0.0367 -0.0367 0.9993 2991.9009 120.0438)">
			<stop  offset="0" style="stop-color:#DAE1F3"/>
			<stop  offset="1" style="stop-color:#E9EFFA"/>
		</linearGradient>
		<path style="fill:url(#SVGID_00000178195034637938414850000010062878037889625502_);" d="M109.51,161.3
			C109.51,161.3,109.51,161.3,109.51,161.3c-0.25-0.01-0.43-0.22-0.42-0.46c0.01-0.18,0.8-17.8-1.99-41.66
			c-2.57-22.01-8.79-53.99-23.86-81.33c-0.12-0.21-0.04-0.48,0.17-0.6c0.21-0.12,0.48-0.04,0.6,0.17
			C99.15,64.9,105.4,97,107.98,119.1c2.79,23.93,2,41.61,1.99,41.79C109.95,161.13,109.75,161.31,109.51,161.3z"/>
	</g>
	<g>
		<path class="st3" d="M84.38,103.19c-1-14.63-6.7-27.5-15.02-36.29c-7.44-7.86-11.64-18.28-11.5-29.08
			c0.01-1.14-0.02-2.29-0.1-3.45c-1.2-17.6-12.96-31.13-26.26-30.22C18.2,5.06,8.4,20.06,9.6,37.66c0.25,3.6,0.93,7.03,1.99,10.2
			c3.36,10.11,2.95,21.15-1.55,30.82c-4.02,8.64-6.02,18.99-5.27,29.96c1.12,16.36,8.11,30.52,18.07,39.23
			c3.77,3.3,6.93,7.26,9.26,11.68c3.88,7.35,10.73,12.04,18.2,11.53c8.06-0.55,14.58-7,17.07-15.79c1.41-4.97,3.78-9.6,6.83-13.78
			C81.4,131.65,85.39,117.99,84.38,103.19z"/>
		<path class="st1" d="M37.45,22.55c2.53,11.51,4.69,23.1,6.73,34.71c0.51,2.9,0.98,5.81,1.45,8.72l0.71,4.36l0.67,4.37
			c0.44,2.91,0.92,5.82,1.32,8.74l1.22,8.76c0.74,5.85,1.52,11.69,2.15,17.55c0.32,2.93,0.69,5.85,0.95,8.79l0.81,8.8
			c0.97,11.75,1.64,23.53,1.71,35.32l-0.51,0.01l-0.39-8.82l-0.09-2.2l-0.15-2.2l-0.3-4.4l-0.3-4.4c-0.1-1.47-0.25-2.93-0.37-4.4
			c-0.26-2.93-0.5-5.86-0.78-8.79c-1.2-11.71-2.55-23.4-4.14-35.06c-0.84-5.83-1.63-11.66-2.51-17.48l-0.65-4.37l-0.69-4.36
			c-0.46-2.91-0.91-5.82-1.4-8.72c-0.92-5.81-1.88-11.62-2.89-17.42c-0.98-5.81-2.01-11.6-3.06-17.39L37.45,22.55z"/>
	</g>
	<g>
		<g>
			<g class="st4">
				<path class="st3" d="M210.3,46.13c-0.54-0.02-0.96-0.48-0.94-1.02c0.04-1.05,0.04-2.13-0.01-3.19
					c-0.02-0.54,0.39-0.99,0.92-1.03c0.01,0,0.01,0,0.02,0c0.54-0.02,1,0.4,1.03,0.94c0.05,1.12,0.05,2.24,0.01,3.35
					c-0.02,0.51-0.42,0.91-0.92,0.94C210.37,46.13,210.33,46.13,210.3,46.13z M208.77,36.78c-0.19-1.04-0.43-2.09-0.71-3.11
					c-0.14-0.52,0.17-1.06,0.69-1.21c0.53-0.14,1.06,0.17,1.21,0.69c0.29,1.07,0.54,2.17,0.74,3.27c0.1,0.53-0.26,1.05-0.79,1.14
					c-0.04,0.01-0.08,0.01-0.12,0.01C209.31,37.61,208.86,37.27,208.77,36.78z M206.36,28.78c-0.42-0.97-0.88-1.94-1.38-2.87
					c-0.26-0.48-0.08-1.08,0.4-1.33c0.48-0.26,1.07-0.08,1.33,0.4c0.53,0.98,1.02,2,1.45,3.02c0.21,0.5-0.02,1.08-0.52,1.29
					c-0.11,0.05-0.22,0.07-0.33,0.08C206.92,29.4,206.53,29.18,206.36,28.78z M202.22,21.53c-0.62-0.86-1.29-1.69-1.99-2.49
					c-0.36-0.41-0.31-1.03,0.1-1.39c0.41-0.36,1.03-0.31,1.39,0.1c0.73,0.84,1.44,1.72,2.09,2.62c0.32,0.44,0.22,1.05-0.21,1.37
					c-0.16,0.11-0.34,0.18-0.52,0.19C202.75,21.95,202.43,21.81,202.22,21.53z M196.57,15.38c-0.8-0.69-1.64-1.36-2.49-1.99
					c-0.44-0.32-0.53-0.94-0.21-1.37c0.32-0.44,0.94-0.53,1.37-0.21c0.9,0.66,1.78,1.36,2.62,2.09c0.41,0.36,0.45,0.98,0.1,1.39
					c-0.18,0.21-0.43,0.32-0.68,0.34C197.03,15.64,196.77,15.56,196.57,15.38z M189.7,10.64c-0.93-0.5-1.9-0.97-2.87-1.39
					c-0.5-0.22-0.73-0.79-0.51-1.29c0.22-0.5,0.79-0.73,1.29-0.51c1.02,0.44,2.04,0.93,3.02,1.46c0.48,0.26,0.66,0.85,0.4,1.33
					c-0.17,0.31-0.48,0.5-0.81,0.52C190.05,10.76,189.87,10.73,189.7,10.64z M153.18,10.18c-0.26-0.48-0.07-1.08,0.41-1.33
					c0.98-0.52,2-1.01,3.03-1.45c0.5-0.21,1.08,0.02,1.29,0.52c0.21,0.5-0.02,1.08-0.52,1.29c-0.97,0.42-1.94,0.88-2.87,1.38
					c-0.13,0.07-0.26,0.11-0.4,0.11C153.73,10.72,153.36,10.53,153.18,10.18z M181.96,7.53c-1.02-0.28-2.06-0.52-3.1-0.71
					c-0.53-0.1-0.89-0.61-0.79-1.15c0.1-0.53,0.61-0.88,1.15-0.79c1.09,0.2,2.19,0.45,3.27,0.75c0.52,0.14,0.83,0.69,0.69,1.21
					c-0.11,0.42-0.48,0.69-0.89,0.72C182.17,7.58,182.06,7.56,181.96,7.53z M161.06,6.82c-0.14-0.52,0.17-1.06,0.69-1.21
					c1.07-0.29,2.18-0.54,3.27-0.74c0.53-0.1,1.05,0.26,1.14,0.79c0.1,0.53-0.26,1.05-0.79,1.14c-1.04,0.19-2.09,0.42-3.11,0.7
					c-0.07,0.02-0.13,0.03-0.2,0.03C161.62,7.57,161.19,7.28,161.06,6.82z M173.71,6.24c-1.06-0.05-2.13-0.05-3.19,0
					c-0.54,0.02-1-0.4-1.02-0.94c-0.02-0.54,0.39-0.99,0.92-1.02c0.01,0,0.01,0,0.02,0c1.11-0.05,2.24-0.05,3.35,0
					c0.54,0.02,0.96,0.48,0.94,1.03c-0.02,0.51-0.42,0.91-0.92,0.94C173.78,6.24,173.75,6.24,173.71,6.24z"/>
				<path class="st3" d="M148.33,14.49c0.19-0.01,0.39-0.08,0.55-0.21c0.4-0.32,0.81-0.63,1.22-0.93c0.44-0.32,0.54-0.94,0.21-1.37
					c-0.32-0.44-0.94-0.54-1.37-0.21c-0.43,0.32-0.87,0.64-1.28,0.98c-0.43,0.34-0.5,0.96-0.16,1.38
					C147.71,14.38,148.02,14.51,148.33,14.49z"/>
			</g>
			<g class="st4">
				<path class="st3" d="M133.99,40.83c0.47-0.03,0.87-0.4,0.92-0.89c0.05-0.5,0.11-1.02,0.18-1.52c0.07-0.54-0.3-1.03-0.84-1.11
					c-0.54-0.07-1.03,0.3-1.11,0.84c-0.07,0.53-0.14,1.07-0.19,1.6c-0.05,0.54,0.34,1.02,0.89,1.07
					C133.89,40.83,133.94,40.83,133.99,40.83z"/>
				<path class="st3" d="M172.58,82.82c-0.54,0.01-0.99-0.43-1-0.97c-0.01-0.54,0.43-0.99,0.97-1c1.03-0.01,2.08-0.07,3.13-0.18
					c0.54-0.05,1.02,0.34,1.07,0.88c0.05,0.54-0.34,1.02-0.88,1.07c-0.45,0.04-0.91,0.08-1.36,0.11
					C173.87,82.78,173.22,82.81,172.58,82.82z M179.98,81.02c-0.13-0.53,0.2-1.06,0.73-1.18c1.01-0.24,2.03-0.53,3.02-0.85
					c0.52-0.17,1.07,0.11,1.24,0.63c0.17,0.52-0.11,1.07-0.63,1.24c-1.04,0.34-2.11,0.64-3.18,0.9c-0.06,0.01-0.11,0.02-0.17,0.02
					C180.52,81.81,180.09,81.5,179.98,81.02z M167.23,82.53c-1.09-0.13-2.18-0.32-3.26-0.54c-0.53-0.11-0.87-0.63-0.76-1.17
					c0.11-0.53,0.63-0.87,1.17-0.76c1.02,0.21,2.06,0.39,3.09,0.51c0.54,0.07,0.92,0.56,0.86,1.1c-0.06,0.48-0.45,0.83-0.91,0.86
					C167.35,82.54,167.29,82.54,167.23,82.53z M187.99,78.39c-0.24-0.49-0.04-1.08,0.45-1.32c0.94-0.46,1.86-0.96,2.76-1.49
					c0.47-0.28,1.07-0.13,1.35,0.34c0.28,0.47,0.13,1.07-0.34,1.35c-0.94,0.56-1.92,1.09-2.9,1.57c-0.12,0.06-0.24,0.09-0.37,0.1
					C188.55,78.97,188.17,78.76,187.99,78.39z M158.82,80.53c-1.03-0.37-2.06-0.79-3.06-1.24c-0.49-0.23-0.71-0.81-0.49-1.3
					c0.23-0.49,0.81-0.71,1.3-0.49c0.95,0.43,1.92,0.83,2.9,1.18c0.51,0.18,0.78,0.75,0.59,1.26c-0.14,0.38-0.48,0.63-0.86,0.65
					C159.08,80.59,158.95,80.57,158.82,80.53z M151.05,76.73c-0.93-0.59-1.84-1.22-2.71-1.88c-0.43-0.33-0.52-0.95-0.19-1.38
					c0.33-0.43,0.95-0.52,1.38-0.19c0.83,0.63,1.7,1.23,2.58,1.79c0.46,0.29,0.6,0.9,0.3,1.36c-0.18,0.28-0.47,0.44-0.77,0.45
					C151.44,76.89,151.23,76.84,151.05,76.73z M144.3,71.33c-0.78-0.78-1.53-1.59-2.24-2.43c-0.35-0.41-0.3-1.04,0.11-1.39
					c0.42-0.35,1.04-0.3,1.39,0.11c0.67,0.79,1.39,1.57,2.13,2.31c0.38,0.38,0.39,1.01,0,1.39c-0.18,0.18-0.4,0.27-0.63,0.29
					C144.78,71.63,144.5,71.54,144.3,71.33z M138.88,64.58c-0.59-0.93-1.14-1.89-1.65-2.86c-0.25-0.48-0.07-1.08,0.42-1.33
					c0.48-0.25,1.08-0.06,1.33,0.42c0.48,0.92,1.01,1.84,1.57,2.71c0.29,0.46,0.16,1.07-0.3,1.36c-0.14,0.09-0.3,0.14-0.46,0.15
					C139.43,65.06,139.08,64.9,138.88,64.58z M135.08,56.81c-0.37-1.03-0.7-2.09-0.98-3.15c-0.14-0.53,0.17-1.06,0.7-1.2
					c0.52-0.14,1.06,0.17,1.2,0.7c0.27,1.01,0.58,2.01,0.93,2.99c0.18,0.51-0.08,1.07-0.59,1.26c-0.09,0.03-0.18,0.05-0.27,0.06
					C135.64,57.49,135.23,57.23,135.08,56.81z M133.08,48.4c-0.1-0.8-0.18-1.61-0.23-2.42c-0.02-0.29-0.03-0.58-0.05-0.87
					c-0.02-0.54,0.39-1.01,0.94-1.02c0.54-0.02,1,0.4,1.02,0.94c0.01,0.28,0.03,0.55,0.04,0.83c0.05,0.76,0.12,1.54,0.22,2.3
					c0.07,0.54-0.31,1.03-0.85,1.1c-0.02,0-0.04,0-0.06,0.01C133.6,49.29,133.14,48.92,133.08,48.4z"/>
				<path class="st3" d="M196.08,74.41c0.2-0.01,0.39-0.08,0.55-0.21c0.42-0.33,0.83-0.68,1.24-1.04c0.41-0.36,0.45-0.98,0.09-1.39
					c-0.36-0.41-0.98-0.45-1.39-0.09c-0.39,0.34-0.78,0.67-1.17,0.98c-0.42,0.34-0.49,0.96-0.15,1.38
					C195.46,74.3,195.77,74.43,196.08,74.41z"/>
			</g>
			<g>
				<path class="st3" d="M197.94,57.65c0.11-0.16,0.11-0.37,0-0.53l-3.24-4.56c1-2.42,1.61-5.01,1.79-7.69l4.92-2.66
					c0.17-0.09,0.27-0.29,0.23-0.48l-1.1-6.62c-0.03-0.19-0.18-0.35-0.38-0.38l-5.51-0.93c-1.03-2.48-2.45-4.74-4.18-6.7l1.59-5.36
					c0.06-0.19-0.01-0.39-0.17-0.5l-5.46-3.91c-0.16-0.11-0.37-0.11-0.53,0l-4.56,3.24c-2.42-1-5.01-1.61-7.69-1.79l-2.66-4.92
					c-0.09-0.17-0.29-0.27-0.48-0.23l-6.62,1.1c-0.19,0.03-0.35,0.18-0.38,0.38l-0.93,5.51c-2.48,1.03-4.74,2.45-6.7,4.18
					l-5.36-1.59c-0.19-0.06-0.39,0.01-0.5,0.17l-3.91,5.46c-0.11,0.16-0.11,0.37,0,0.53l3.24,4.56c-1,2.42-1.61,5.01-1.79,7.69
					l-4.92,2.66c-0.17,0.09-0.27,0.29-0.23,0.48l1.1,6.62c0.03,0.19,0.18,0.35,0.38,0.38l5.51,0.93c1.03,2.48,2.45,4.74,4.18,6.7
					l-1.59,5.36c-0.06,0.19,0.01,0.39,0.17,0.5l5.46,3.91c0.16,0.11,0.37,0.11,0.53,0l4.56-3.24c2.42,1,5.01,1.61,7.69,1.79
					l2.66,4.92c0.09,0.17,0.29,0.27,0.48,0.23l6.62-1.1c0.19-0.03,0.35-0.18,0.38-0.38l0.93-5.51c2.48-1.03,4.74-2.45,6.7-4.18
					l5.36,1.59c0.19,0.06,0.39-0.01,0.5-0.17L197.94,57.65z"/>
				<g>
					<path class="st1" d="M171.46,49.95c-3.71-0.31-6.47-3.57-6.16-7.28c0.15-1.8,0.99-3.43,2.36-4.59
						c1.38-1.16,3.12-1.72,4.92-1.57c3.71,0.31,6.47,3.57,6.16,7.28c-0.28,3.37-3.01,5.97-6.29,6.17
						C172.12,49.98,171.79,49.98,171.46,49.95z M168.68,39.28c-1.05,0.89-1.7,2.14-1.81,3.52c-0.24,2.84,1.88,5.35,4.73,5.58
						c2.84,0.24,5.35-1.88,5.58-4.73c0.24-2.84-1.88-5.35-4.73-5.58c-0.26-0.02-0.51-0.02-0.77-0.01
						C170.58,38.14,169.53,38.56,168.68,39.28z"/>
				</g>
				<g>
					<path class="st1" d="M172.93,59.7c0.56-0.04,1.13-0.1,1.69-0.19l0,0c0.18-0.03,0.36-0.06,0.53-0.1
						c0.87-0.17,1.73-0.42,2.56-0.72c0.01,0,0.02-0.01,0.03-0.01c0.03-0.01,0.06-0.02,0.1-0.04c0.06-0.02,0.12-0.05,0.19-0.07
						c0.16-0.06,0.26-0.22,0.25-0.39c0-0.04-0.01-0.08-0.03-0.12c-0.08-0.2-0.31-0.3-0.51-0.22c-1.04,0.41-2.13,0.71-3.24,0.9
						c-5.52,0.92-10.86-1.17-14.35-5.05c-1.94-2.16-3.31-4.88-3.82-7.95c-0.09-0.54-0.15-1.08-0.18-1.62
						c-0.23-3.62,0.78-7.18,2.92-10.16c2.46-3.43,6.1-5.7,10.27-6.39c8.6-1.43,16.75,4.41,18.17,13c0.09,0.53,0.15,1.06,0.18,1.6
						c0.15,2.31-0.21,4.62-1.06,6.78c-0.02,0.06-0.03,0.11-0.03,0.17c0.01,0.15,0.1,0.28,0.25,0.34c0.2,0.08,0.43-0.02,0.51-0.22
						c0.89-2.26,1.27-4.69,1.12-7.11c-0.04-0.56-0.1-1.12-0.19-1.67c-1.5-9.02-10.06-15.15-19.08-13.65
						c-4.37,0.72-8.2,3.11-10.78,6.71c-2.24,3.14-3.31,6.87-3.07,10.67c0.04,0.56,0.1,1.13,0.19,1.7c0.73,4.37,3.11,8.2,6.71,10.78
						C165.39,58.87,169.13,59.94,172.93,59.7z"/>
				</g>
			</g>
		</g>
		<g>
			<g class="st4">
				<path class="st3" d="M245.55,69.87c0.26-0.02,0.49-0.2,0.55-0.47c0.11-0.5,0.21-1.02,0.3-1.53c0.05-0.33-0.17-0.64-0.5-0.7
					c-0.33-0.06-0.64,0.17-0.7,0.5c-0.08,0.49-0.17,0.97-0.28,1.45c-0.07,0.33,0.13,0.65,0.46,0.73
					C245.43,69.87,245.49,69.88,245.55,69.87z"/>
				<path class="st3" d="M246.09,65.24c-0.34-0.01-0.6-0.3-0.58-0.63c0.03-0.85,0.02-1.7-0.03-2.55c-0.01-0.18-0.02-0.36-0.04-0.54
					c-0.03-0.33,0.22-0.63,0.55-0.66c0.32-0.01,0.63,0.22,0.66,0.55c0.02,0.19,0.03,0.37,0.04,0.56c0.06,0.89,0.07,1.79,0.03,2.67
					c-0.01,0.31-0.26,0.56-0.57,0.58C246.13,65.24,246.11,65.24,246.09,65.24z M244.99,58.47c-0.21-1-0.48-2.01-0.82-2.97
					c-0.11-0.32,0.06-0.66,0.38-0.77c0.32-0.11,0.66,0.06,0.77,0.38c0.35,1.02,0.63,2.06,0.86,3.12c0.07,0.33-0.14,0.65-0.47,0.72
					c-0.03,0.01-0.06,0.01-0.09,0.01C245.32,58.97,245.05,58.77,244.99,58.47z M242.99,52.64c-0.45-0.92-0.96-1.82-1.52-2.68
					c-0.18-0.28-0.1-0.66,0.18-0.84c0.28-0.18,0.66-0.1,0.84,0.18c0.59,0.9,1.13,1.85,1.6,2.81c0.15,0.3,0.02,0.67-0.28,0.81
					c-0.07,0.04-0.15,0.06-0.23,0.06C243.34,53,243.1,52.87,242.99,52.64z M239.63,47.49c-0.66-0.78-1.38-1.53-2.13-2.23
					c-0.25-0.23-0.26-0.61-0.03-0.86c0.23-0.25,0.61-0.26,0.86-0.03c0.79,0.73,1.54,1.52,2.24,2.34c0.22,0.26,0.18,0.64-0.07,0.86
					c-0.1,0.09-0.23,0.13-0.35,0.14C239.95,47.71,239.76,47.64,239.63,47.49z M235.11,43.3c-0.83-0.6-1.71-1.15-2.61-1.64
					c-0.29-0.16-0.4-0.53-0.24-0.82s0.53-0.4,0.82-0.24c0.94,0.52,1.86,1.1,2.74,1.72c0.27,0.2,0.33,0.58,0.14,0.85
					c-0.11,0.15-0.28,0.24-0.46,0.25C235.36,43.43,235.23,43.39,235.11,43.3z M229.71,40.35c-0.95-0.38-1.94-0.7-2.93-0.96
					c-0.32-0.08-0.52-0.42-0.44-0.74c0.08-0.32,0.41-0.52,0.74-0.44c1.04,0.27,2.07,0.61,3.07,1c0.31,0.12,0.46,0.48,0.34,0.79
					c-0.09,0.23-0.3,0.37-0.53,0.38C229.88,40.39,229.79,40.38,229.71,40.35z M223.75,38.8c-1.01-0.13-2.05-0.2-3.08-0.21
					c-0.34,0-0.61-0.28-0.6-0.61c0-0.34,0.28-0.6,0.61-0.6c1.08,0.01,2.16,0.08,3.23,0.22c0.33,0.04,0.57,0.35,0.52,0.68
					c-0.04,0.29-0.28,0.51-0.56,0.53C223.83,38.81,223.79,38.81,223.75,38.8z M213.82,38.86c-0.08-0.33,0.12-0.65,0.45-0.73
					c0.9-0.22,1.83-0.39,2.76-0.52c0.14-0.02,0.28-0.04,0.42-0.05c0.33-0.05,0.64,0.2,0.67,0.53c0.04,0.33-0.2,0.63-0.53,0.67
					c-0.13,0.01-0.26,0.03-0.4,0.05c-0.89,0.12-1.78,0.28-2.64,0.49c-0.04,0.01-0.07,0.01-0.11,0.02
					C214.16,39.34,213.89,39.15,213.82,38.86z"/>
			</g>
			<g class="st4">
				<path class="st3" d="M221.79,89.83c-1.06,0.05-2.13,0.04-3.18-0.03c-0.33-0.02-0.59-0.31-0.56-0.65
					c0.02-0.34,0.32-0.58,0.65-0.56c1,0.07,2.02,0.08,3.03,0.03c0.34-0.02,0.62,0.24,0.64,0.58
					C222.39,89.52,222.13,89.81,221.79,89.83C221.8,89.83,221.8,89.83,221.79,89.83z M224.26,88.98c-0.06-0.33,0.17-0.64,0.5-0.7
					c0.99-0.17,1.99-0.4,2.96-0.69c0.32-0.09,0.66,0.09,0.76,0.41c0.1,0.32-0.09,0.66-0.41,0.76c-1.01,0.3-2.05,0.55-3.1,0.73
					c-0.02,0-0.04,0.01-0.07,0.01C224.59,89.5,224.31,89.29,224.26,88.98z M215.46,89.38c-1.04-0.2-2.08-0.47-3.08-0.8
					c-0.32-0.1-0.49-0.45-0.39-0.77c0.1-0.32,0.45-0.49,0.77-0.39c0.96,0.31,1.95,0.57,2.94,0.76c0.33,0.06,0.54,0.38,0.48,0.71
					c-0.05,0.28-0.29,0.47-0.56,0.49C215.56,89.39,215.51,89.39,215.46,89.38z M230.24,87.34c-0.13-0.31,0.01-0.67,0.31-0.8
					c0.92-0.41,1.83-0.87,2.7-1.39c0.29-0.17,0.66-0.08,0.83,0.21c0.17,0.29,0.08,0.66-0.21,0.83c-0.91,0.54-1.86,1.03-2.83,1.45
					c-0.07,0.03-0.14,0.05-0.21,0.05C230.59,87.72,230.35,87.58,230.24,87.34z M209.42,87.41c-0.96-0.45-1.9-0.96-2.8-1.52
					c-0.28-0.18-0.37-0.55-0.19-0.84c0.18-0.28,0.55-0.37,0.84-0.19c0.86,0.53,1.75,1.02,2.67,1.45c0.3,0.14,0.44,0.5,0.29,0.81
					c-0.1,0.21-0.3,0.34-0.51,0.35C209.62,87.47,209.52,87.46,209.42,87.41z M204.03,84.05c-0.82-0.66-1.62-1.39-2.35-2.14
					c-0.23-0.24-0.23-0.62,0.01-0.86c0.24-0.23,0.62-0.23,0.86,0.01c0.7,0.72,1.46,1.41,2.24,2.04c0.26,0.21,0.3,0.59,0.09,0.85
					c-0.11,0.14-0.27,0.21-0.43,0.23C204.31,84.19,204.16,84.15,204.03,84.05z M199.6,79.5c-0.64-0.84-1.24-1.73-1.77-2.64
					c-0.17-0.29-0.07-0.66,0.22-0.83c0.29-0.17,0.66-0.07,0.83,0.22c0.51,0.87,1.08,1.72,1.69,2.52c0.2,0.27,0.15,0.65-0.12,0.85
					c-0.1,0.08-0.21,0.12-0.33,0.12C199.93,79.75,199.73,79.67,199.6,79.5z"/>
				<path class="st3" d="M236.2,84.52c0.12-0.01,0.23-0.05,0.33-0.13c0.41-0.32,0.82-0.65,1.2-0.99c0.25-0.22,0.28-0.6,0.06-0.86
					c-0.22-0.25-0.6-0.28-0.86-0.06c-0.37,0.32-0.75,0.64-1.15,0.94c-0.27,0.21-0.31,0.59-0.11,0.85
					C235.81,84.45,236,84.53,236.2,84.52z"/>
			</g>
			<g>
				<path class="st3" d="M237.81,73.07c0.08-0.11,0.08-0.25,0-0.36l-2.17-3.05c0.67-1.62,1.08-3.35,1.2-5.15l3.29-1.78
					c0.12-0.06,0.18-0.19,0.16-0.32l-0.73-4.43c-0.02-0.13-0.12-0.23-0.25-0.25l-3.69-0.62c-0.69-1.66-1.64-3.17-2.8-4.48l1.07-3.59
					c0.04-0.13-0.01-0.26-0.12-0.34l-3.65-2.61c-0.11-0.08-0.25-0.08-0.36,0l-3.05,2.17c-1.62-0.67-3.35-1.08-5.15-1.2l-1.78-3.29
					c-0.06-0.12-0.19-0.18-0.32-0.16l-4.43,0.73c-0.13,0.02-0.23,0.12-0.25,0.25l-0.62,3.69c-1.66,0.69-3.17,1.64-4.48,2.8
					L206.07,50c-0.13-0.04-0.26,0.01-0.34,0.12l-2.61,3.65c-0.08,0.11-0.08,0.25,0,0.36l2.17,3.05c-0.67,1.62-1.08,3.35-1.2,5.15
					l-3.29,1.78c-0.12,0.06-0.18,0.19-0.16,0.32l0.73,4.43c0.02,0.13,0.12,0.23,0.25,0.25l3.69,0.62c0.69,1.66,1.64,3.17,2.8,4.48
					l-1.07,3.59c-0.04,0.13,0.01,0.26,0.12,0.34l3.65,2.61c0.11,0.08,0.25,0.08,0.36,0l3.05-2.17c1.62,0.67,3.35,1.08,5.15,1.2
					l1.78,3.29c0.06,0.12,0.19,0.18,0.32,0.16l4.43-0.73c0.13-0.02,0.23-0.12,0.25-0.25l0.62-3.69c1.66-0.69,3.17-1.64,4.48-2.8
					l3.59,1.07c0.13,0.04,0.26-0.01,0.34-0.12L237.81,73.07z"/>
				<g>
					<path class="st1" d="M220.09,68c-1.22-0.1-2.33-0.67-3.13-1.61c-0.79-0.94-1.17-2.13-1.07-3.35c0.21-2.52,2.43-4.4,4.96-4.2
						c2.53,0.21,4.41,2.44,4.2,4.96c-0.1,1.22-0.67,2.33-1.61,3.13c-0.76,0.64-1.69,1.02-2.67,1.08
						C220.54,68.02,220.32,68.02,220.09,68z M217.1,63.14c-0.07,0.9,0.21,1.78,0.79,2.46c0.58,0.69,1.4,1.11,2.3,1.18l0,0
						c0.9,0.07,1.77-0.21,2.46-0.79c0.69-0.58,1.11-1.4,1.18-2.3c0.15-1.86-1.23-3.49-3.09-3.65c-0.17-0.01-0.33-0.02-0.5,0
						C218.61,60.15,217.24,61.45,217.1,63.14z"/>
				</g>
				<g>
					<path class="st1" d="M221.11,74.78c0.38-0.02,0.77-0.07,1.16-0.13c0.77-0.13,1.53-0.33,2.25-0.61c0.03-0.01,0.06-0.03,0.1-0.04
						c0.25-0.1,0.4-0.35,0.38-0.6c0-0.06-0.02-0.12-0.04-0.19c-0.12-0.31-0.48-0.46-0.79-0.34c-0.67,0.27-1.38,0.46-2.1,0.58l0,0
						c-0.04,0.01-0.08,0.01-0.12,0.02c-1.7,0.27-3.41,0.1-4.99-0.47c-0.86-0.31-1.68-0.73-2.44-1.27c-0.01,0-0.01-0.01-0.02-0.01
						c-0.02-0.01-0.04-0.03-0.06-0.04c-2.22-1.59-3.69-3.95-4.14-6.65c-0.06-0.35-0.1-0.7-0.12-1.05c-0.15-2.34,0.51-4.65,1.89-6.58
						c1.59-2.22,3.95-3.69,6.65-4.14c2.69-0.45,5.4,0.18,7.63,1.77c2.22,1.59,3.69,3.95,4.14,6.65c0.06,0.34,0.1,0.69,0.12,1.03
						c0.09,1.49-0.14,2.99-0.69,4.39c-0.03,0.09-0.05,0.17-0.04,0.26c0.01,0.23,0.16,0.44,0.38,0.53c0.31,0.12,0.66-0.03,0.79-0.34
						c0.62-1.56,0.88-3.24,0.77-4.91c-0.02-0.39-0.07-0.77-0.13-1.16c-0.5-3.02-2.14-5.66-4.63-7.44c-2.49-1.78-5.51-2.49-8.53-1.98
						c-3.02,0.5-5.66,2.14-7.44,4.63c-1.55,2.16-2.28,4.74-2.12,7.36c0.02,0.39,0.07,0.78,0.13,1.17
						C210.07,71.07,215.33,75.15,221.11,74.78z"/>
				</g>
			</g>
		</g>
	</g>
	<g>
		<g>
			
				<linearGradient id="SVGID_00000016781127633033359940000010599152640621485952_" gradientUnits="userSpaceOnUse" x1="74.6169" y1="172.3979" x2="282.5085" y2="34.7901">
				<stop  offset="0" style="stop-color:#232451"/>
				<stop  offset="1" style="stop-color:#2A307B"/>
			</linearGradient>
			<path style="fill:url(#SVGID_00000016781127633033359940000010599152640621485952_);" d="M15.99,202.72c0,2.15,1.76,3.9,3.91,3.9
				h211.28c2.15,0,3.91-1.76,3.91-3.9l1.76-121.42c0-2.15-2.53-6.34-7.16-6.02L23.2,69.94c-2.7-0.07-5.3,0.97-7.21,2.87
				s-2.95,4.51-2.89,7.2L15.99,202.72z"/>
			<path class="st6" d="M19.85,198.98c0,2.03,1.66,3.7,3.7,3.7h202.54c2.03,0,3.7-1.66,3.7-3.7l1.66-110.22
				c-0.2-6.63-6.01-9.02-9.54-8.88l-197.9-5.31c-1.89-0.05-3.73,0.68-5.07,2.02c-1.34,1.34-2.08,3.17-2.03,5.06L19.85,198.98z"/>
			<path class="st3" d="M25.47,194.67c0,1.84,1.55,3.34,3.44,3.34h188.23c1.89,0,3.44-1.5,3.44-3.34l1.54-99.69
				c-0.18-6-5.59-8.16-8.86-8.03l-183.92-4.8c-1.76-0.05-3.46,0.61-4.71,1.82c-1.25,1.21-1.93,2.87-1.89,4.58L25.47,194.67z"/>
			<g>
				
					<linearGradient id="SVGID_00000155145409185049889340000014114266594408638092_" gradientUnits="userSpaceOnUse" x1="227.0491" y1="127.5987" x2="228.2634" y2="127.5987">
					<stop  offset="0" style="stop-color:#DAE1F3"/>
					<stop  offset="1" style="stop-color:#E9EFFA"/>
				</linearGradient>
				<path style="fill:url(#SVGID_00000155145409185049889340000014114266594408638092_);" d="M227.59,131.47
					C227.59,131.47,227.59,131.47,227.59,131.47c-0.31,0-0.55-0.19-0.54-0.42l0.13-6.9c0-0.23,0.25-0.41,0.54-0.41
					c0,0,0.01,0,0.01,0c0.3,0,0.54,0.19,0.53,0.42l-0.13,6.9C228.13,131.28,227.89,131.47,227.59,131.47z"/>
				
					<linearGradient id="SVGID_00000011714591146760457690000004029741651961741746_" gradientUnits="userSpaceOnUse" x1="156.2731" y1="97.4232" x2="228.9567" y2="97.4232">
					<stop  offset="0" style="stop-color:#DAE1F3"/>
					<stop  offset="1" style="stop-color:#E9EFFA"/>
				</linearGradient>
				<path style="fill:url(#SVGID_00000011714591146760457690000004029741651961741746_);" d="M227.91,114.56
					C227.91,114.56,227.91,114.56,227.91,114.56c-0.31,0-0.55-0.19-0.54-0.42l0.5-26.42c-0.01-1.57-0.63-2.82-1.83-3.72
					c-2.26-1.67-5.84-1.58-5.99-1.58l-63.25-1.31c-0.3-0.01-0.54-0.2-0.53-0.43c0.01-0.23,0.24-0.43,0.56-0.41l63.21,1.31
					c0.39-0.02,4.21-0.07,6.74,1.81c1.43,1.06,2.16,2.51,2.17,4.32l-0.5,26.43C228.45,114.38,228.21,114.56,227.91,114.56z"/>
			</g>
			
				<linearGradient id="SVGID_00000141427835295176971630000005663970454557260441_" gradientUnits="userSpaceOnUse" x1="122.5099" y1="201.9754" x2="85.5129" y2="45.7651">
				<stop  offset="0" style="stop-color:#232451"/>
				<stop  offset="1" style="stop-color:#2A307B"/>
			</linearGradient>
			<path style="fill:url(#SVGID_00000141427835295176971630000005663970454557260441_);" d="M11.23,215.42h226.7
				c2.11,0,3.84-1.73,3.84-3.84v-1.71c0-2.11-1.73-3.84-3.84-3.84H11.23c-2.11,0-3.84,1.73-3.84,3.84v1.71
				C7.39,213.69,9.12,215.42,11.23,215.42z"/>
		</g>
		<g>
			<g>
				<path class="st10" d="M146.85,163.27c-2.56,8.44-10.41,14.6-19.67,14.6c-11.33,0-20.55-9.22-20.55-20.56
					c0-6.23,2.79-11.83,7.19-15.6l-0.87-8.52c-8.25,4.88-13.79,13.87-13.79,24.13c0,15.45,12.57,28.02,28.02,28.02
					c9.78,0,18.41-5.04,23.42-12.65L146.85,163.27z"/>
			</g>
			<path class="st10" d="M159.62,176.88c-0.46,0-0.93-0.09-1.37-0.26c-0.96-0.38-1.72-1.3-2.1-2.25l-9.51-24.05H122.6
				c-1.91,0-3.52-1.29-3.71-3.19l-3.33-32.57c-0.21-2.05,1.28-3.84,3.33-4.05c2.05-0.21,3.88,1.38,4.09,3.43l2.98,29.39h23.2
				c1.53,0,2.9,0.85,3.47,2.27l8.98,22.51l7.16-3.4c1.86-0.88,4.09-0.09,4.97,1.77c0.88,1.86,0.08,4.08-1.78,4.96l-10.75,5.08
				C160.71,176.76,160.17,176.88,159.62,176.88z"/>
			<g>
				<path class="st10" d="M143.2,136.35h-22.1c-2.06,0-3.73-1.62-3.73-3.68s1.67-3.68,3.73-3.68h22.1c2.06,0,3.73,1.62,3.73,3.68
					S145.26,136.35,143.2,136.35z"/>
			</g>
			<circle class="st10" cx="121.8" cy="109.83" r="8.06"/>
		</g>
	</g>
	<g>
		<g>
			
				<linearGradient id="SVGID_00000031924120473545121900000009666715535123001993_" gradientUnits="userSpaceOnUse" x1="92.8235" y1="125.9928" x2="31.491" y2="224.1249">
				<stop  offset="0" style="stop-color:#232451"/>
				<stop  offset="1" style="stop-color:#2A307B"/>
			</linearGradient>
			<path style="fill:url(#SVGID_00000031924120473545121900000009666715535123001993_);" d="M29.13,138.15
				c-0.37,14.57-1.58,64.83-1,82.64c0.06,1.89,1.62,3.4,3.57,3.46c9.62,0.31,37.29,1.08,53.02,0.44c3.28-0.13,5.88-2.71,5.95-5.89
				c0.33-15.29,1.05-58.31-0.67-78.02c-0.21-2.36-2.12-4.24-4.55-4.48c-10.48-1.02-38.3-3.5-51.89-2.65
				C31.12,133.82,29.2,135.76,29.13,138.15z"/>
			<path class="st6" d="M33.04,142.67c-0.53,11.93-2.18,51.63-1.66,66.31c0.08,2.15,1.82,3.88,4.03,4.01
				c9.1,0.52,32.43,1.66,45.77,0.62c2.4-0.19,4.29-2.07,4.42-4.41c0.68-12.17,2.62-49.14,2.11-63.66c-0.08-2.32-1.93-4.21-4.31-4.41
				c-9.84-0.86-35.11-2.9-46.45-2.3C34.83,138.95,33.13,140.61,33.04,142.67z"/>
			<path class="st3" d="M34.29,144.73c-0.5,11.25-2.06,48.68-1.57,62.53c0.07,2.02,1.72,3.66,3.81,3.78
				c8.6,0.49,30.65,1.56,43.26,0.58c2.27-0.18,4.05-1.95,4.18-4.15c0.64-11.48,2.47-46.33,2-60.02c-0.08-2.18-1.82-3.97-4.07-4.16
				c-9.3-0.81-33.19-2.73-43.91-2.17C35.98,141.22,34.38,142.79,34.29,144.73z"/>
			<path class="st12" d="M52.91,136.21L52.91,136.21c0,0.45,0.36,0.82,0.82,0.84c2.27,0.12,8.67,0.44,11.53,0.6
				c0.56,0.03,1.01-0.46,0.9-1l-0.02-0.09c-0.07-0.37-0.39-0.64-0.77-0.68c-1.93-0.17-7.77-0.65-11.63-0.51
				C53.27,135.38,52.91,135.76,52.91,136.21z"/>
		</g>
		<g>
			<path class="st10" d="M71.61,160.36l-1.43-1.17c-0.35-0.29-0.89-0.25-1.21,0.08l-22.72,24.06c-0.33,0.35-0.3,0.86,0.06,1.15
				l1.47,1.18c0.36,0.29,0.92,0.24,1.25-0.1l22.64-24.07C71.99,161.16,71.96,160.65,71.61,160.36z"/>
			<g>
				<path class="st10" d="M61.25,164v0.88l-12.7,13.56h-1.99c-0.79,0-1.43-0.35-1.43-1.14v-9.75c0-0.79,0.64-1.46,1.43-1.46h5.78
					v0.07c2.4-1.15,4.71-2.29,7.04-3.44c0.44-0.22,0.92-0.19,1.34,0.07C61.13,163.05,61.25,163.51,61.25,164z"/>
				<path class="st10" d="M55.99,180.5l5.26-5.67v6.02c0,0.49-0.16,0.95-0.58,1.21c-0.42,0.26-0.92,0.29-1.37,0.07
					C58.19,181.59,57.1,181.04,55.99,180.5z"/>
				<g>
					<path class="st10" d="M71.34,172.74c0,3.26-1.19,6.24-3.17,8.54c-0.41,0.47-1.12,0.5-1.56,0.06l-0.04-0.04
						c-0.39-0.39-0.42-1.02-0.06-1.44c1.65-1.91,2.65-4.4,2.65-7.12c0-1.77-0.42-3.44-1.17-4.91l1.58-1.67
						C70.69,168.09,71.34,170.34,71.34,172.74z"/>
					<path class="st10" d="M67.71,172.74c0,2.25-0.79,4.32-2.11,5.95c-0.39,0.49-1.13,0.52-1.57,0.07l-0.01-0.01
						c-0.39-0.39-0.41-1-0.07-1.43c1.01-1.25,1.62-2.85,1.62-4.58c0-0.71-0.1-1.39-0.29-2.04l1.63-1.74
						C67.42,170.12,67.71,171.4,67.71,172.74z"/>
				</g>
			</g>
		</g>
	</g>
	<g>
		<g>
			<g>
				
					<linearGradient id="SVGID_00000051357283461989531450000010029901410105018030_" gradientUnits="userSpaceOnUse" x1="80.3519" y1="186.4532" x2="135.9891" y2="288.5278">
					<stop  offset="0" style="stop-color:#232451"/>
					<stop  offset="1" style="stop-color:#2A307B"/>
				</linearGradient>
				<path style="fill:url(#SVGID_00000051357283461989531450000010029901410105018030_);" d="M74.89,179.36
					c-0.21,9.76-0.9,43.43-0.57,55.36c0.03,1.26,0.93,2.28,2.04,2.32c5.51,0.2,21.35,0.72,30.36,0.29c1.88-0.09,3.37-1.81,3.41-3.95
					c0.19-10.24,0.6-39.06-0.38-52.26c-0.12-1.58-1.21-2.84-2.6-3c-6-0.68-21.93-2.35-29.72-1.77
					C76.03,176.46,74.93,177.77,74.89,179.36z"/>
				<path class="st6" d="M77.13,182.39c-0.3,7.99-1.25,34.59-0.95,44.42c0.04,1.44,1.04,2.6,2.31,2.68
					c5.21,0.35,18.57,1.11,26.21,0.41c1.38-0.12,2.46-1.39,2.53-2.95c0.39-8.15,1.5-32.92,1.21-42.64c-0.05-1.55-1.1-2.82-2.47-2.96
					c-5.64-0.57-20.11-1.94-26.6-1.54C78.15,179.9,77.18,181.01,77.13,182.39z"/>
				<path class="st3" d="M78.23,184.1c-0.28,7.41-1.16,32.08-0.88,41.2c0.04,1.33,0.97,2.41,2.14,2.49
					c4.83,0.32,17.23,1.03,24.31,0.38c1.28-0.12,2.28-1.29,2.35-2.74c0.36-7.56,1.39-30.53,1.12-39.55
					c-0.04-1.44-1.02-2.61-2.29-2.74c-5.23-0.53-18.65-1.8-24.68-1.43C79.18,181.79,78.28,182.82,78.23,184.1z"/>
				<path class="st12" d="M88.51,178.06L88.51,178.06c0,0.3,0.21,0.55,0.47,0.56c1.3,0.08,4.97,0.3,6.6,0.4
					c0.32,0.02,0.58-0.31,0.52-0.67l-0.01-0.06c-0.04-0.25-0.22-0.43-0.44-0.45c-1.11-0.12-4.45-0.43-6.66-0.34
					C88.72,177.51,88.51,177.76,88.51,178.06z"/>
			</g>
		</g>
		<g>
			<g>
				<path class="st10" d="M99.05,201.09l-2.24,2.55c0.12,0.37,0.19,0.76,0.21,1.16c0.08,2.38-1.83,4.37-4.28,4.44
					c-0.28,0.01-0.55-0.01-0.82-0.05l-0.95,1.08c0.59,0.06,1.19,0.08,1.8,0.06c4.46-0.14,8.27-2.41,10.35-5.7
					C102.08,203.19,100.68,201.97,99.05,201.09z M92.45,200.59c0.22-0.01,0.43,0.01,0.65,0.03l0.94-1.07
					c-0.53-0.05-1.07-0.07-1.62-0.06c-4.5,0.09-8.41,2.36-10.57,5.71c1.07,1.44,2.47,2.65,4.1,3.54l2.36-2.68
					c-0.09-0.33-0.15-0.67-0.16-1.03C88.05,202.63,89.99,200.64,92.45,200.59z"/>
			</g>
			<path class="st10" d="M101.07,196.16l-1.03-0.79c-0.25-0.19-0.63-0.16-0.85,0.09l-15.36,17.42c-0.22,0.25-0.19,0.61,0.07,0.81
				l1.06,0.79c0.26,0.19,0.65,0.15,0.87-0.1l15.3-17.42C101.35,196.71,101.32,196.35,101.07,196.16z"/>
		</g>
	</g>
	<g>
		<g>
			<g>
				
					<linearGradient id="SVGID_00000047049905852292596630000003092557791130656403_" gradientUnits="userSpaceOnUse" x1="-2057.4834" y1="161.3768" x2="-2071.8154" y2="178.6843" gradientTransform="matrix(-1 0 0 1 -1865.6108 0)">
					<stop  offset="0" style="stop-color:#F7BABA"/>
					<stop  offset="1" style="stop-color:#F2908F"/>
				</linearGradient>
				<path style="fill:url(#SVGID_00000047049905852292596630000003092557791130656403_);" d="M193.56,164.73
					c1.08,1.54,2.29,3.01,3.53,4.43c1.16,1.34,2.38,2.63,3.67,3.85c0.81,0.76,1.45,1.74,2.43,2.31c0.72,0.42,0.77,0.29,1.24-0.23
					c0.77-0.85,1.64-1.32,2.51-0.55c0.68,0.6,1.58,1.16,1.98,2c0.43,0.9-0.16,5.98-1.68,5.62c-0.01,0-6.82-1.62-14.09-15.88
					L193.56,164.73z"/>
				<g>
					
						<linearGradient id="SVGID_00000082358498229540885070000000103547211730499246_" gradientUnits="userSpaceOnUse" x1="-2056.613" y1="162.0965" x2="-2070.9436" y2="179.4024" gradientTransform="matrix(-1 0 0 1 -1865.6108 0)">
						<stop  offset="0" style="stop-color:#F7BABA"/>
						<stop  offset="1" style="stop-color:#F2908F"/>
					</linearGradient>
					<path style="fill:url(#SVGID_00000082358498229540885070000000103547211730499246_);" d="M195,168.08
						c-0.02,0.22,0.82,0.38,1.09-0.58c-0.07-0.42-0.2-2.24-0.53-2.52c-1.71-1.51-4.76-3.2-4.76-3.2c-0.34,0.52,0.11,0.86,0.11,0.86
						l1.52,1.02c-0.16,0.52-0.39,0.98-0.42,1.58c-0.02,0.45,0.15,0.89,0.45,1.24c0.3,0.34,0.71,0.79,1.08,1.12
						C194.24,168.24,195,168.08,195,168.08z"/>
					
						<linearGradient id="SVGID_00000121961912515322096880000010642800468829946011_" gradientUnits="userSpaceOnUse" x1="192.97" y1="165.838" x2="195.0566" y2="165.838">
						<stop  offset="0" style="stop-color:#F2908F"/>
						<stop  offset="1" style="stop-color:#EE7065"/>
					</linearGradient>
					<path style="fill:url(#SVGID_00000121961912515322096880000010642800468829946011_);" d="M195.06,165.97l-0.56-0.87l-1.34-0.71
						c-0.21,0.17-0.3,0.39,0.04,0.75c0.34,0.35,1.09,2.17,1.09,2.17L195.06,165.97z"/>
				</g>
			</g>
			
				<linearGradient id="SVGID_00000128454630044961832580000015297374209365066905_" gradientUnits="userSpaceOnUse" x1="1977.3677" y1="-571.2367" x2="1962.1798" y2="-540.8611" gradientTransform="matrix(-1 0 0 1 1821.979 0)">
				<stop  offset="0" style="stop-color:#F2908F"/>
				<stop  offset="1" style="stop-color:#EE7065"/>
			</linearGradient>
			<path style="fill:url(#SVGID_00000128454630044961832580000015297374209365066905_);" d="M210.96,190.14
				c-1.62,3.38,9.1,5.59,18.53,7.1l0.17-22.68c0,0,1.44-9.62-5.15-10.69c-3.88-0.98-3.88-0.97-3.88-0.97s-4.96-0.72-9.12,0.99
				c-4.15,1.71-7.23,10.97-7.23,10.97l4.56,5.26c0.08,0.09,0.24,0.06,0.27-0.06l1.56-4.83L210.96,190.14z"/>
			<g>
				
					<linearGradient id="SVGID_00000093855956985358116970000012074502341990320268_" gradientUnits="userSpaceOnUse" x1="-1499.6121" y1="-1004.4527" x2="-1514.7998" y2="-974.0771" gradientTransform="matrix(-1 0 0 1 -1865.6108 0)">
					<stop  offset="0" style="stop-color:#E2473D"/>
					<stop  offset="1" style="stop-color:#E9615A"/>
				</linearGradient>
				<path style="fill:url(#SVGID_00000093855956985358116970000012074502341990320268_);" d="M220.01,173.59
					c0.05-0.09,0.07-0.19,0.1-0.28c0.12-0.42,0.31-0.84,0.47-1.26c0.07-0.2,0.15-0.4,0.22-0.6c0.05-0.15,0.2-0.39,0.2-0.55
					c0.53-1.47,1.07-2.94,1.6-4.4c0.02-0.05-0.01-0.1-0.05-0.11c-0.05-0.02-0.1,0.01-0.12,0.05c-0.2,0.56-0.41,1.12-0.61,1.68
					c-0.38,1.05-0.76,2.1-1.15,3.15c-0.17,0.45-0.33,0.91-0.5,1.36c-0.06,0.15-0.13,0.3-0.19,0.45c-0.03,0.08-0.05,0.17-0.08,0.25
					c0,0-0.07,0.19-0.09,0.15c0.04,0.07,0.1,0.15,0.17,0.18C219.99,173.63,220,173.61,220.01,173.59z"/>
			</g>
			<g>
				
					<linearGradient id="SVGID_00000024705224233458357100000008758553554812954801_" gradientUnits="userSpaceOnUse" x1="716.0012" y1="933.5883" x2="713.3235" y2="912.1675" gradientTransform="matrix(-0.9402 -0.3405 -0.3405 0.9402 1196.3335 -474.406)">
					<stop  offset="0" style="stop-color:#F7BABA"/>
					<stop  offset="1" style="stop-color:#F2908F"/>
				</linearGradient>
				<path style="fill-rule:evenodd;clip-rule:evenodd;fill:url(#SVGID_00000024705224233458357100000008758553554812954801_);" d="
					M209.46,153.3c0,0,0.53-1.49-0.83-1.76c-1.36-0.27-0.06,3.7-0.06,3.7L209.46,153.3z"/>
				
					<linearGradient id="SVGID_00000048459525824527177880000000561877319672327826_" gradientUnits="userSpaceOnUse" x1="1601.157" y1="172.1093" x2="1606.389" y2="152.4891" gradientTransform="matrix(-1 0 0 1 1821.979 0)">
					<stop  offset="0" style="stop-color:#F7BABA"/>
					<stop  offset="1" style="stop-color:#F2908F"/>
				</linearGradient>
				<path style="fill-rule:evenodd;clip-rule:evenodd;fill:url(#SVGID_00000048459525824527177880000000561877319672327826_);" d="
					M220.33,157.36l0.54,5.85c0,0-3.11,1.81-5.79,0.23l0.48-5.11L220.33,157.36z"/>
				
					<linearGradient id="SVGID_00000023995404779125902470000017420080987064089275_" gradientUnits="userSpaceOnUse" x1="572.6979" y1="937.6264" x2="519.4633" y2="994.8208" gradientTransform="matrix(-0.9011 -0.4336 -0.4336 0.9011 1096.6998 -584.9309)">
					<stop  offset="0" style="stop-color:#232451"/>
					<stop  offset="1" style="stop-color:#2A307B"/>
				</linearGradient>
				<path style="fill-rule:evenodd;clip-rule:evenodd;fill:url(#SVGID_00000023995404779125902470000017420080987064089275_);" d="
					M208.83,153.19c0,0-1.36-2.32,0.37-3.54c0,0-0.93-2.04,0.83-3.52c0,0,2.81-6.52,8.7-1.95c0,0,5.07-1.5,6.71,4.77
					c0,0,1.69,0.94,0.91,3.28c0,0,0.19,8.68-7.47,5.76L208.83,153.19z"/>
				
					<linearGradient id="SVGID_00000112621146559565821100000014579320134874467238_" gradientUnits="userSpaceOnUse" x1="709.1959" y1="932.5413" x2="707.0674" y2="915.5132" gradientTransform="matrix(-0.9402 -0.3405 -0.3405 0.9402 1196.3335 -474.406)">
					<stop  offset="0" style="stop-color:#F7BABA"/>
					<stop  offset="1" style="stop-color:#F2908F"/>
				</linearGradient>
				<path style="fill-rule:evenodd;clip-rule:evenodd;fill:url(#SVGID_00000112621146559565821100000014579320134874467238_);" d="
					M211.35,148.34c0,0-6.49,9.71,0.22,12.69c6.33,2.81,9-3.64,9-3.64s2.78-2.86,1.85-5.07
					C221.48,150.12,212.93,147.14,211.35,148.34z"/>
				
					<linearGradient id="SVGID_00000178895634846099414320000009394058128629162926_" gradientUnits="userSpaceOnUse" x1="804.5552" y1="818.0258" x2="751.2672" y2="875.2775" gradientTransform="matrix(-0.9402 -0.3405 -0.3405 0.9402 1196.3335 -474.406)">
					<stop  offset="0" style="stop-color:#232451"/>
					<stop  offset="1" style="stop-color:#2A307B"/>
				</linearGradient>
				<path style="fill-rule:evenodd;clip-rule:evenodd;fill:url(#SVGID_00000178895634846099414320000009394058128629162926_);" d="
					M221.2,155.86c0,0-6.35-2-5.81-5.72c0,0-1.1,0.11-1.44-1.18c0,0-3.12,2.79-3.94,0.84c0,0,0.55-4.82,4.36-3.26
					c3.81,1.56,7.29,3.15,8.31,4.26C223.69,151.92,224.54,154.61,221.2,155.86z"/>
				
					<linearGradient id="SVGID_00000015326466320118630570000012861869417860232853_" gradientUnits="userSpaceOnUse" x1="702.8823" y1="933.1085" x2="700.7872" y2="916.3475" gradientTransform="matrix(-0.9402 -0.3405 -0.3405 0.9402 1196.3335 -474.406)">
					<stop  offset="0" style="stop-color:#F7BABA"/>
					<stop  offset="1" style="stop-color:#F2908F"/>
				</linearGradient>
				<path style="fill-rule:evenodd;clip-rule:evenodd;fill:url(#SVGID_00000015326466320118630570000012861869417860232853_);" d="
					M219.73,158.26l1.13-3.08c0,0,2.18-1,1.89,0.68C222.47,157.53,220.51,158.46,219.73,158.26z"/>
			</g>
		</g>
		<g>
			
				<linearGradient id="SVGID_00000071527151238528334170000005514156643026029705_" gradientUnits="userSpaceOnUse" x1="174.6655" y1="233.9706" x2="214.8648" y2="162.9171">
				<stop  offset="0" style="stop-color:#4857A3"/>
				<stop  offset="1" style="stop-color:#40509E"/>
			</linearGradient>
			<path style="fill:url(#SVGID_00000071527151238528334170000005514156643026029705_);" d="M198.95,205.63l-12.58,22.45
				c-0.1,0.17-0.31,0.24-0.49,0.15l-11.71-6.07c-0.6-0.31-0.73-1.11-0.26-1.6l0,0c0.4-0.42,1.04-0.52,1.55-0.23l9.75,5.46
				c0.18,0.1,0.41,0.03,0.51-0.16l9.24-18.36c0.06-0.12,0.19-0.2,0.33-0.2L198.95,205.63z"/>
			<g>
				
					<linearGradient id="SVGID_00000057833526605877407280000011443227481271889072_" gradientUnits="userSpaceOnUse" x1="-2048.9924" y1="196.7119" x2="-2055.2893" y2="203.8398" gradientTransform="matrix(-1 0 0 1 -1865.6108 0)">
					<stop  offset="0" style="stop-color:#F7BABA"/>
					<stop  offset="1" style="stop-color:#F2908F"/>
				</linearGradient>
				<path style="fill:url(#SVGID_00000057833526605877407280000011443227481271889072_);" d="M205,193.02l-20.64,7.35
					c-0.44,0.16-0.77,0.53-0.86,0.99l-4.25,18.54c0.34,1.24,1.08,1.17,2.73,0.08c2.46-5.44,5.91-11,5.8-14.04
					c0.21-0.6,0.73-1.03,1.36-1.12l12.14-1.69L205,193.02z"/>
				
					<linearGradient id="SVGID_00000075160660163219588640000016055706833848111033_" gradientUnits="userSpaceOnUse" x1="175.6578" y1="206.314" x2="178.41" y2="217.5979">
					<stop  offset="0" style="stop-color:#232451"/>
					<stop  offset="1" style="stop-color:#2A307B"/>
				</linearGradient>
				<path style="fill:url(#SVGID_00000075160660163219588640000016055706833848111033_);" d="M182.08,219.38
					c-1.23,0.93-2.01,1.09-2.75,0.18c-2.53,0.37-3.62,1.26-3.64,2.54c2.5,0.49,4.99,0.6,7.47-0.1
					C183.09,220.86,182.8,219.35,182.08,219.38z"/>
				
					<linearGradient id="SVGID_00000073709261850752712880000007846569846927579794_" gradientUnits="userSpaceOnUse" x1="-2059.2546" y1="127.2218" x2="-2063.5547" y2="171.0042" gradientTransform="matrix(-1 0 0 1 -1865.6108 0)">
					<stop  offset="0" style="stop-color:#4857A3"/>
					<stop  offset="1" style="stop-color:#40509E"/>
				</linearGradient>
				<path style="fill:url(#SVGID_00000073709261850752712880000007846569846927579794_);" d="M213.57,194.55
					c-2.76,4.33-14.27,9.77-20.79,11.17c-2.37-1.61-4.54-3.81-5.38-6.49c3.36-2.56,16.88-6.45,23.4-8.52L213.57,194.55z"/>
			</g>
			
				<linearGradient id="SVGID_00000038392045416952442410000002501822683102050688_" gradientUnits="userSpaceOnUse" x1="216.4452" y1="225.7597" x2="233.7838" y2="186.1285">
				<stop  offset="0" style="stop-color:#232451"/>
				<stop  offset="1" style="stop-color:#2A307B"/>
			</linearGradient>
			<path style="fill:url(#SVGID_00000038392045416952442410000002501822683102050688_);" d="M231.07,199.35l4.98,1.98l-0.18-29.4
				c-1.86-2.96-3.43-2.64-4.8,0V199.35z"/>
			<g>
				
					<linearGradient id="SVGID_00000176746966003049680000000010635519828495197318_" gradientUnits="userSpaceOnUse" x1="-2058.9153" y1="200.6095" x2="-2064.2698" y2="217.5654" gradientTransform="matrix(-1 0 0 1 -1865.6108 0)">
					<stop  offset="0" style="stop-color:#F7BABA"/>
					<stop  offset="1" style="stop-color:#F2908F"/>
				</linearGradient>
				<path style="fill:url(#SVGID_00000176746966003049680000000010635519828495197318_);" d="M208.29,194.75l-20.64,7.35
					c-0.44,0.16-0.77,0.53-0.86,0.99l-3.67,18.59c0.34,1.24,0.97,1.3,2.62,0.21c2.46-5.44,5.43-11.2,5.32-14.23
					c0.21-0.6,0.73-1.03,1.36-1.12l12.14-1.69L208.29,194.75z"/>
				
					<linearGradient id="SVGID_00000164486685524400554260000000907059180685720479_" gradientUnits="userSpaceOnUse" x1="187.3736" y1="217.8925" x2="199.3455" y2="200.6914">
					<stop  offset="0" style="stop-color:#232451"/>
					<stop  offset="1" style="stop-color:#2A307B"/>
				</linearGradient>
				<path style="fill:url(#SVGID_00000164486685524400554260000000907059180685720479_);" d="M185.9,221.55
					c-1.25,0.91-2.04,1.07-2.77,0.14c-2.55,0.33-3.66,1.21-3.7,2.5c2.5,0.54,5.01,0.69,7.51,0.02
					C186.88,223.05,186.62,221.53,185.9,221.55z"/>
				
					<linearGradient id="SVGID_00000170996384790612381810000005435141815624091579_" gradientUnits="userSpaceOnUse" x1="207.4844" y1="199.2061" x2="246.9668" y2="237.9066">
					<stop  offset="0" style="stop-color:#4857A3"/>
					<stop  offset="1" style="stop-color:#40509E"/>
				</linearGradient>
				<path style="fill:url(#SVGID_00000170996384790612381810000005435141815624091579_);" d="M228.22,196.21
					c-2.76,4.33-28.43,10.58-34.94,11.98c-1.88-1.28-3.64-2.93-4.7-4.9c-0.48-0.89-0.14-2,0.75-2.48
					c4.82-2.61,18.15-7.37,23.96-9.22L228.22,196.21z"/>
			</g>
			
				<linearGradient id="SVGID_00000095311973529143321060000014504492463908703651_" gradientUnits="userSpaceOnUse" x1="246.8225" y1="155.8498" x2="234.9881" y2="170.7116">
				<stop  offset="0" style="stop-color:#232451"/>
				<stop  offset="1" style="stop-color:#2A307B"/>
			</linearGradient>
			<path style="fill:url(#SVGID_00000095311973529143321060000014504492463908703651_);" d="M231.13,193.31l-39.86,8.03
				c-2.72,0.59-4.67,2.96-4.72,5.72l-0.39,23h2.72l1.81-22.23l38.94-3.97L231.13,193.31z"/>
			
				<linearGradient id="SVGID_00000101082266527673880920000003691090913261135753_" gradientUnits="userSpaceOnUse" x1="-2054.8093" y1="222.8056" x2="-2061.3206" y2="238.285" gradientTransform="matrix(-1 0 0 1 -1865.6108 0)">
				<stop  offset="0" style="stop-color:#232451"/>
				<stop  offset="1" style="stop-color:#2A307B"/>
			</linearGradient>
			<path style="fill:url(#SVGID_00000101082266527673880920000003691090913261135753_);" d="M198.4,232.68h-11.03
				c-0.49,0-0.9-0.4-0.9-0.9v-0.4c0-0.49,0.4-0.9,0.9-0.9h11.03c0.49,0,0.9,0.4,0.9,0.9v0.4C199.3,232.27,198.9,232.68,198.4,232.68
				z"/>
			<g>
				
					<linearGradient id="SVGID_00000057827289078231427750000003328948591467766418_" gradientUnits="userSpaceOnUse" x1="186.0263" y1="257.7887" x2="187.6776" y2="231.3679">
					<stop  offset="0" style="stop-color:#232451"/>
					<stop  offset="1" style="stop-color:#2A307B"/>
				</linearGradient>
				
					<ellipse style="fill:url(#SVGID_00000057827289078231427750000003328948591467766418_);" cx="187.4" cy="235.74" rx="6.27" ry="6.22"/>
				
					<linearGradient id="SVGID_00000031915015559323803890000004922528690494613640_" gradientUnits="userSpaceOnUse" x1="-2848.7419" y1="226.6897" x2="-2857.9575" y2="243.5534" gradientTransform="matrix(1 0 0 1 3041.0938 0)">
					<stop  offset="0" style="stop-color:#4857A3"/>
					<stop  offset="1" style="stop-color:#40509E"/>
				</linearGradient>
				
					<ellipse style="fill:url(#SVGID_00000031915015559323803890000004922528690494613640_);" cx="187.4" cy="235.74" rx="4.81" ry="4.77"/>
			</g>
			
				<linearGradient id="SVGID_00000057837851149109383540000014936809336086195358_" gradientUnits="userSpaceOnUse" x1="244.0977" y1="142.7402" x2="215.3375" y2="227.2319">
				<stop  offset="0" style="stop-color:#4857A3"/>
				<stop  offset="1" style="stop-color:#40509E"/>
			</linearGradient>
			<path style="fill:url(#SVGID_00000057837851149109383540000014936809336086195358_);" d="M241.98,162.11
				c-10.77-3.09-13.99,1.13-13.06,13.46v23.56h2.69v-27.88c0.23-6.07,2.25-7.85,9.37-5.62
				C243.27,165.93,244.46,162.87,241.98,162.11z"/>
			
				<linearGradient id="SVGID_00000102517379920972161610000003188945603754464940_" gradientUnits="userSpaceOnUse" x1="335.0341" y1="100.1362" x2="278.9559" y2="143.3631">
				<stop  offset="0" style="stop-color:#232451"/>
				<stop  offset="1" style="stop-color:#2A307B"/>
			</linearGradient>
			<path style="fill:url(#SVGID_00000102517379920972161610000003188945603754464940_);" d="M229.83,193.66l-30.62,0.18v-0.09
				c0-1.48,1.19-2.7,2.68-2.75l26.64-0.87c1.07-0.03,1.89,0.95,1.65,1.99L229.83,193.66z"/>
			<g>
				
					<linearGradient id="SVGID_00000054966486524501148790000000054679946295324323_" gradientUnits="userSpaceOnUse" x1="240.7187" y1="237.2913" x2="195.3079" y2="198.2105">
					<stop  offset="0" style="stop-color:#232451"/>
					<stop  offset="1" style="stop-color:#2A307B"/>
				</linearGradient>
				
					<ellipse style="fill:url(#SVGID_00000054966486524501148790000000054679946295324323_);" cx="221.22" cy="220.51" rx="25.45" ry="25.27"/>
				
					<linearGradient id="SVGID_00000168088673752413745450000010260751644615000450_" gradientUnits="userSpaceOnUse" x1="232.3099" y1="181.8569" x2="214.9713" y2="245.432">
					<stop  offset="0" style="stop-color:#4857A3"/>
					<stop  offset="1" style="stop-color:#40509E"/>
				</linearGradient>
				
					<ellipse style="opacity:0.51;fill:url(#SVGID_00000168088673752413745450000010260751644615000450_);" cx="221.65" cy="220.94" rx="21.8" ry="21.65"/>
			</g>
		</g>
		
			<linearGradient id="SVGID_00000085221214713232339010000001576716370336954807_" gradientUnits="userSpaceOnUse" x1="189.4079" y1="203.1212" x2="214.1594" y2="154.2964">
			<stop  offset="0" style="stop-color:#232451"/>
			<stop  offset="1" style="stop-color:#2A307B"/>
		</linearGradient>
		<path style="fill:url(#SVGID_00000085221214713232339010000001576716370336954807_);" d="M187.94,172.43l12.98-1
			c0.53-0.04,1.03,0.26,1.28,0.77l9.71,20.17c0.47,0.97-0.21,2.13-1.23,2.09l-11.26-0.38c-0.44-0.01-0.84-0.26-1.07-0.65
			l-11.42-18.8C186.36,173.73,186.93,172.51,187.94,172.43z"/>
		
			<linearGradient id="SVGID_00000015325359772996423830000011631791508822779537_" gradientUnits="userSpaceOnUse" x1="1813.5923" y1="606.1559" x2="1915.8358" y2="604.4519" gradientTransform="matrix(-0.9824 -0.1866 -0.1866 0.9824 2131.5935 -74.1739)">
			<stop  offset="0" style="stop-color:#F7BABA"/>
			<stop  offset="1" style="stop-color:#F2908F"/>
		</linearGradient>
		<path style="fill:url(#SVGID_00000015325359772996423830000011631791508822779537_);" d="M224.8,176.61
			c-1.53-0.73-3.14-1.45-4.22-2.53l-5.02,5.86c0,0-10.33-3.65-12.6-2.01c-2.27,1.64-1.38,1.78-1.14,1.82s1.55-0.92,1.55-0.92
			s-1.23,1.25-0.73,1.41c0.5,0.16,2.02-0.96,2.02-0.96s-1.38,1.6-0.72,1.51c0.66-0.09,1.35-0.96,1.35-0.96s-1.05,0.99-0.49,1.14
			c0.55,0.15,1.6-0.68,1.6-0.68s1.2,0.84,1.96,0.98c0.75,0.14,7.99,3.46,9.52,2.93C219.39,183.68,224.8,176.61,224.8,176.61z"/>
	</g>
	<g>
		
			<linearGradient id="SVGID_00000091732827050672655600000009283059300735353752_" gradientUnits="userSpaceOnUse" x1="122.5356" y1="200.6988" x2="200.4175" y2="116.0151">
			<stop  offset="0" style="stop-color:#E2473D"/>
			<stop  offset="1" style="stop-color:#E9615A"/>
		</linearGradient>
		<path style="fill:url(#SVGID_00000091732827050672655600000009283059300735353752_);" d="M181.23,111.54
			c-8.99,2.78-17.71,9.74-16.5,18.62c1.03,7.55,11.07,9.78,17.17,10.58c1.7,0.22,3.24,0.97,4.35,2.11
			c2.64,2.72,8.29,7.26,14.49,4.24c0.45-0.22,0.25-0.82-0.27-0.8c-1.65,0.06-3.99-0.15-5.58-1.49c-2.17-1.82-1.38-4.98,1.42-5.97
			c5.31-1.86,15.32-6.93,14.02-18.43C208.57,104.86,181.23,111.54,181.23,111.54z"/>
		<path class="st10" d="M186.71,123.93c0,0,0.44-5.2,6.44-4.34c5.69,0.81,3.87,7.53-4.15,11.8c-0.87,0.46-1.94,0.53-2.88,0.19
			c-3.52-1.29-11.71-4.99-7.19-10.12C181.85,118.15,186.71,123.93,186.71,123.93z"/>
		<path class="st44" d="M168.18,123.73c-0.08,0-0.15-0.01-0.23-0.04c-0.29-0.11-0.43-0.4-0.31-0.65c3.34-6.78,11.33-9.8,17.44-11.14
			c0.31-0.07,0.62,0.09,0.7,0.36c0.08,0.27-0.11,0.54-0.42,0.6c-5.86,1.28-13.5,4.16-16.66,10.57
			C168.61,123.61,168.4,123.73,168.18,123.73z"/>
		<path class="st44" d="M166.86,130.65c-0.28,0-0.53-0.18-0.57-0.43c-0.01-0.04-0.17-1.01-0.01-2.51c0.03-0.27,0.31-0.48,0.63-0.45
			c0.32,0.02,0.55,0.27,0.52,0.54c-0.15,1.38,0,2.27,0,2.28c0.05,0.27-0.17,0.52-0.49,0.56
			C166.91,130.65,166.88,130.65,166.86,130.65z"/>
	</g>
	<g>
		
			<linearGradient id="SVGID_00000104676324512457042360000015298965662435675317_" gradientUnits="userSpaceOnUse" x1="-2023.108" y1="143.4572" x2="-2041.2443" y2="143.4572" gradientTransform="matrix(-1 0 0 1 -1979.5092 0)">
			<stop  offset="0" style="stop-color:#F7BABA"/>
			<stop  offset="1" style="stop-color:#F2908F"/>
		</linearGradient>
		<path style="fill:url(#SVGID_00000104676324512457042360000015298965662435675317_);" d="M61.74,139.99
			c0,0-6.74,15.55-10.88,13.47c-4.15-2.07-7.25-19.17-7.25-19.17S58.89,129.69,61.74,139.99z"/>
		<g>
			<g>
				
					<linearGradient id="SVGID_00000094594423593113579030000007230124221533403571_" gradientUnits="userSpaceOnUse" x1="944.5108" y1="208.7284" x2="944.8986" y2="251.3812" gradientTransform="matrix(1 0 0 1 -897.8074 0)">
					<stop  offset="0" style="stop-color:#4857A3"/>
					<stop  offset="1" style="stop-color:#40509E"/>
				</linearGradient>
				<path style="fill:url(#SVGID_00000094594423593113579030000007230124221533403571_);" d="M38.28,236.46c0,0-0.56,3.19-0.84,6.34
					c-0.11,1.23,0.84,2.3,2.08,2.36c4.2,0.17,13.19,0.52,16.42,0.37c0.48-0.02,0.8-0.52,0.62-0.97c-0.15-0.38-0.44-0.68-0.81-0.85
					l-14.85-6.82L38.28,236.46z"/>
				
					<linearGradient id="SVGID_00000126324078480051958130000002738722202316362373_" gradientUnits="userSpaceOnUse" x1="935.627" y1="236.4423" x2="940.457" y2="236.4423" gradientTransform="matrix(1 0 0 1 -897.8074 0)">
					<stop  offset="0" style="stop-color:#F7BABA"/>
					<stop  offset="1" style="stop-color:#F2908F"/>
				</linearGradient>
				<path style="fill:url(#SVGID_00000126324078480051958130000002738722202316362373_);" d="M37.82,234.58l0.45,3.81
					c0,0,2.6,1.21,4.38-0.15l-1.08-4.25L37.82,234.58z"/>
				
					<linearGradient id="SVGID_00000069362645620744816000000001816513562698406302_" gradientUnits="userSpaceOnUse" x1="930.1694" y1="254.8207" x2="933.4661" y2="166.364" gradientTransform="matrix(1 0 0 1 -897.8074 0)">
					<stop  offset="0" style="stop-color:#4857A3"/>
					<stop  offset="1" style="stop-color:#40509E"/>
				</linearGradient>
				<path style="fill:url(#SVGID_00000069362645620744816000000001816513562698406302_);" d="M38.16,162.89
					c-0.2,1-1.05,49.69,4.16,71.52c0.08,0.36-0.1,0.72-0.43,0.86c-0.8,0.33-2.36,0.8-4.24,0.86c-0.58,0.02-1.1-0.36-1.27-0.92
					c-1.49-5.06-8.62-30.43-9.55-54.67c-1.04-27.08,0-0.92,0-0.92l0.61-16.74L38.16,162.89z"/>
			</g>
			<g>
				
					<linearGradient id="SVGID_00000054980900732272474880000002397485739185666196_" gradientUnits="userSpaceOnUse" x1="920.7672" y1="208.9444" x2="921.1549" y2="251.5971" gradientTransform="matrix(1 0 0 1 -897.8074 0)">
					<stop  offset="0" style="stop-color:#4857A3"/>
					<stop  offset="1" style="stop-color:#40509E"/>
				</linearGradient>
				<path style="fill:url(#SVGID_00000054980900732272474880000002397485739185666196_);" d="M21.2,238.12c0,0-0.9,1.61-1.76,5.89
					c-0.16,0.77,0.38,1.51,1.17,1.59c1.39,0.14,3.52,0.31,5.24,0.3c0.79-0.01,1.4-0.69,1.31-1.48c-0.19-1.56-0.78-4.12-2.6-6.12
					L21.2,238.12z"/>
				
					<linearGradient id="SVGID_00000109006501980752125110000009382410174498572161_" gradientUnits="userSpaceOnUse" x1="918.2194" y1="236.1946" x2="922.3896" y2="236.1946" gradientTransform="matrix(1 0 0 1 -897.8074 0)">
					<stop  offset="0" style="stop-color:#F7BABA"/>
					<stop  offset="1" style="stop-color:#F2908F"/>
				</linearGradient>
				<path style="fill:url(#SVGID_00000109006501980752125110000009382410174498572161_);" d="M20.41,233.21l1.06,5.77
					c0,0,1.05,0.78,3.11,0.21l-0.5-6.2L20.41,233.21z"/>
				
					<linearGradient id="SVGID_00000047045934820810829300000009034992629967120043_" gradientUnits="userSpaceOnUse" x1="922.0165" y1="254.5169" x2="925.3131" y2="166.0604" gradientTransform="matrix(1 0 0 1 -897.8074 0)">
					<stop  offset="0" style="stop-color:#4857A3"/>
					<stop  offset="1" style="stop-color:#40509E"/>
				</linearGradient>
				<path style="fill:url(#SVGID_00000047045934820810829300000009034992629967120043_);" d="M17.56,164.38
					c-4.26,25.69,0.92,63.5,2.67,70.9c0.11,0.45,0.47,0.8,0.93,0.88c0.78,0.13,2.06,0.23,3.33-0.13c0.44-0.13,0.74-0.52,0.76-0.97
					c0.23-5.98-0.19-42.71,3.78-57.23c0.2-0.74,0.65-1.38,1.27-1.82l7.7-5.47l0.59-8.85L17.56,164.38z"/>
			</g>
		</g>
		<g>
			
				<linearGradient id="SVGID_00000169540411481704914780000008672809249480155061_" gradientUnits="userSpaceOnUse" x1="-1466.9221" y1="-947.7925" x2="-1482.11" y2="-917.4169" gradientTransform="matrix(-1 0 0 1 -1979.5092 0)">
				<stop  offset="0" style="stop-color:#F2908F"/>
				<stop  offset="1" style="stop-color:#EE7065"/>
			</linearGradient>
			<path style="fill:url(#SVGID_00000169540411481704914780000008672809249480155061_);" d="M45.15,116.67
				c-15.55-1.55-27.31,2.38-27.31,2.38c-3.8,22.19-0.67,47.79-0.67,47.79c9.88,2.59,21.02-1.58,21.02-1.58
				c1.64-9.28,9.3-35.38,9.3-35.38C53.74,129.1,49.07,117.06,45.15,116.67z"/>
		</g>
		
			<linearGradient id="SVGID_00000164508309848928012610000010561089318590251395_" gradientUnits="userSpaceOnUse" x1="901.765" y1="144.7513" x2="933.8348" y2="144.7513" gradientTransform="matrix(1 0 0 1 -897.8074 0)">
			<stop  offset="0" style="stop-color:#F7BABA"/>
			<stop  offset="1" style="stop-color:#F2908F"/>
		</linearGradient>
		<path style="fill:url(#SVGID_00000164508309848928012610000010561089318590251395_);" d="M34.12,141.56c0,0-15.5,7.19-19.11,2.66
			c-1.02-1.28-0.98-2.84-0.75-4.11c-4.01-2.03-7.85-2.58-10.1-2.74c-0.59,3.1,0.13,6.97,2.16,10.17
			c7.37,11.58,29.71-2.27,29.71-2.27L34.12,141.56z"/>
		<g>
			
				<linearGradient id="SVGID_00000174595885569971157200000012764891107601727643_" gradientUnits="userSpaceOnUse" x1="-2023.3558" y1="116.6687" x2="-2033.6527" y2="140.8268" gradientTransform="matrix(-1 0 0 1 -1979.5092 0)">
				<stop  offset="0" style="stop-color:#232451"/>
				<stop  offset="1" style="stop-color:#2A307B"/>
			</linearGradient>
			<path style="fill:url(#SVGID_00000174595885569971157200000012764891107601727643_);" d="M39.23,145.33l5.5-19.21
				c0.06-0.22,0.25-0.38,0.47-0.4c1-0.12,3.88-0.44,7.22-0.72c4.02-0.34,8.68-0.61,11.47-0.38c0.4,0.03,0.64,0.45,0.46,0.81
				c-1.58,3.21-8.1,16.25-11.37,20.52c-0.11,0.14-0.28,0.22-0.45,0.22l-12.76-0.12C39.39,146.05,39.12,145.69,39.23,145.33z"/>
			
				<linearGradient id="SVGID_00000031171402759292128050000004659633798843586689_" gradientUnits="userSpaceOnUse" x1="931.452" y1="142.1101" x2="941.1807" y2="142.1101" gradientTransform="matrix(1 0 0 1 -897.8074 0)">
				<stop  offset="0" style="stop-color:#F7BABA"/>
				<stop  offset="1" style="stop-color:#F2908F"/>
			</linearGradient>
			<path style="fill:url(#SVGID_00000031171402759292128050000004659633798843586689_);" d="M34.35,146.43c0,0-1.02-4.18-0.61-5.67
				c0.41-1.48,1.21-3.39,3.86-2.97c2.65,0.42,5.78,1.54,5.78,1.54s-0.16,1.93-2.17,1.31l1.25,0.97c0,0-0.18,1.55-1.88,0.72
				l1.16,1.28c0,0-0.73,1.27-1.98,0.46C38.5,143.26,37.9,146.94,34.35,146.43z"/>
			
				<linearGradient id="SVGID_00000101819724177571910370000016168020824930735763_" gradientUnits="userSpaceOnUse" x1="-1976.6273" y1="-682.0677" x2="-1966.8981" y2="-682.0677" gradientTransform="matrix(-0.8472 -0.5312 -0.5312 0.8472 -1972.5192 -335.2152)">
				<stop  offset="0" style="stop-color:#F7BABA"/>
				<stop  offset="1" style="stop-color:#F2908F"/>
			</linearGradient>
			<path style="fill:url(#SVGID_00000101819724177571910370000016168020824930735763_);" d="M61.5,140.21c0,0,3.08-3,3.52-4.48
				c0.44-1.48,0.78-3.51-1.69-4.56c-2.47-1.05-5.71-1.76-5.71-1.76s-0.89,1.72,1.14,2.26l-1.57,0.16c0,0-0.67,1.41,1.21,1.61
				l-1.66,0.47c0,0-0.06,1.47,1.44,1.44C59.67,135.32,58.23,138.75,61.5,140.21z"/>
		</g>
		
			<linearGradient id="SVGID_00000096744730079602328880000007516261923691757964_" gradientUnits="userSpaceOnUse" x1="927.0396" y1="112.9649" x2="939.386" y2="112.9649" gradientTransform="matrix(1 0 0 1 -897.8074 0)">
			<stop  offset="0" style="stop-color:#F7BABA"/>
			<stop  offset="1" style="stop-color:#F2908F"/>
		</linearGradient>
		<path style="fill:url(#SVGID_00000096744730079602328880000007516261923691757964_);" d="M33.32,106.31l-4.06,11.74
			c-0.07,0.19,0.01,0.41,0.19,0.51c1.11,0.61,5.09,2.38,9.9-0.67c0.5-0.32,0.84-0.83,0.92-1.42l1.31-10.16H33.32z"/>
		<g>
			
				<linearGradient id="SVGID_00000157281996379236802470000005964320172886899631_" gradientUnits="userSpaceOnUse" x1="-6454.3433" y1="-2491.5361" x2="-6458.957" y2="-2506.7532" gradientTransform="matrix(0.9296 -0.3685 0.3685 0.9296 6961.6426 46.3708)">
				<stop  offset="0" style="stop-color:#F7BABA"/>
				<stop  offset="1" style="stop-color:#F2908F"/>
			</linearGradient>
			<path style="fill:url(#SVGID_00000157281996379236802470000005964320172886899631_);" d="M44.66,98.76c0,0,1.3,9.41-0.41,12.4
				c-1.7,2.99-6.81,0.86-10.39-3.39l-0.05-9.67L44.66,98.76z"/>
			
				<linearGradient id="SVGID_00000104667683997888211790000009582083776455090107_" gradientUnits="userSpaceOnUse" x1="-6458.5059" y1="-2518.0496" x2="-6454.6465" y2="-2496.0369" gradientTransform="matrix(0.9296 -0.3685 0.3685 0.9296 6961.6426 46.3708)">
				<stop  offset="0" style="stop-color:#232451"/>
				<stop  offset="1" style="stop-color:#2A307B"/>
			</linearGradient>
			<path style="fill:url(#SVGID_00000104667683997888211790000009582083776455090107_);" d="M35.6,103.67
				c0.21-0.01,0.36-0.21,0.32-0.42c-0.15-0.64-0.39-1.91-0.26-2.9c0,0-0.58-0.76,2.33-0.42c2.9,0.34,7.24,0.81,8.91-1.16
				c1.63-1.92,1.53-8.27-3.52-5.08c-0.19,0.12-0.45,0.03-0.52-0.18c-0.29-0.93-1.21-2.99-3.59-2.82c-2.23,0.16-2.96,1.48-3.19,2.2
				c-0.07,0.21-0.31,0.3-0.5,0.19c-0.9-0.54-3.16-1.55-5.12,0.44c-1.61,1.63-1.44,2.96-1.11,3.69c0.11,0.24-0.07,0.5-0.34,0.49
				c-0.71-0.04-1.73,0.2-2.19,1.72c-0.64,2.1,1.73,2.76,2.42,2.91c0.11,0.02,0.21,0.1,0.25,0.21c0.33,0.83,1.9,4.4,4.52,5.72
				c0.23,0.11,0.5-0.05,0.5-0.31l0.08-3.88c0-0.18,0.14-0.33,0.32-0.34L35.6,103.67z"/>
			
				<linearGradient id="SVGID_00000098189174871988006290000004955166131936026762_" gradientUnits="userSpaceOnUse" x1="-6459.0596" y1="-2491.6069" x2="-6463.2104" y2="-2505.2979" gradientTransform="matrix(0.9296 -0.3685 0.3685 0.9296 6961.6426 46.3708)">
				<stop  offset="0" style="stop-color:#F7BABA"/>
				<stop  offset="1" style="stop-color:#F2908F"/>
			</linearGradient>
			<path style="fill:url(#SVGID_00000098189174871988006290000004955166131936026762_);" d="M35.9,104.33c0,0-2.23-3.14-3.08-1.49
				c-0.85,1.64,1.77,3.48,3.44,3.36L35.9,104.33z"/>
		</g>
		
			<linearGradient id="SVGID_00000142162255898537172010000017598022192562055323_" gradientUnits="userSpaceOnUse" x1="-1455.3737" y1="-942.0185" x2="-1470.5615" y2="-911.6428" gradientTransform="matrix(-1 0 0 1 -1979.5092 0)">
			<stop  offset="0" style="stop-color:#F2908F"/>
			<stop  offset="1" style="stop-color:#EE7065"/>
		</linearGradient>
		<path style="fill:url(#SVGID_00000142162255898537172010000017598022192562055323_);" d="M22.74,131.4l-4.89-12.35
			c0,0-11.66,7.92-13.81,18.03c-0.04,0.18,0.09,0.35,0.27,0.36c2.31,0.2,6.21,0.82,10.02,2.75C15.21,135.34,22.74,131.4,22.74,131.4
			z"/>
		<g>
			
				<linearGradient id="SVGID_00000021089135679965482970000010177793531211644036_" gradientUnits="userSpaceOnUse" x1="44.0439" y1="102.3084" x2="42.3265" y2="103.6224">
				<stop  offset="0" style="stop-color:#232451"/>
				<stop  offset="1" style="stop-color:#2A307B"/>
			</linearGradient>
			<path style="fill:url(#SVGID_00000021089135679965482970000010177793531211644036_);" d="M42.09,103.31l-0.28-0.37
				c0.04-0.03,0.91-0.69,1.79-0.56c0.39,0.06,0.72,0.26,0.97,0.6l-0.37,0.27c-0.18-0.24-0.39-0.38-0.66-0.42
				C42.85,102.74,42.09,103.3,42.09,103.31z"/>
			
				<linearGradient id="SVGID_00000153666903164916193850000003902821004826097826_" gradientUnits="userSpaceOnUse" x1="51.1499" y1="94.7499" x2="28.751" y2="111.8885">
				<stop  offset="0" style="stop-color:#232451"/>
				<stop  offset="1" style="stop-color:#2A307B"/>
			</linearGradient>
			<path style="fill:url(#SVGID_00000153666903164916193850000003902821004826097826_);" d="M42.2,102.96c0,1.25-0.8,2.27-1.79,2.27
				c-0.99,0-1.79-1.02-1.79-2.27s0.8-2.27,1.79-2.27C41.4,100.7,42.2,101.71,42.2,102.96z"/>
			
				<linearGradient id="SVGID_00000149382239371522596150000002904885613140123808_" gradientUnits="userSpaceOnUse" x1="54.8625" y1="95.7981" x2="35.3218" y2="110.7497">
				<stop  offset="0" style="stop-color:#232451"/>
				<stop  offset="1" style="stop-color:#2A307B"/>
			</linearGradient>
			<path style="fill:url(#SVGID_00000149382239371522596150000002904885613140123808_);" d="M46.81,102.96
				c0,1.25-0.59,2.27-1.31,2.27c-0.72,0-1.31-1.02-1.31-2.27s0.59-2.27,1.31-2.27C46.22,100.7,46.81,101.71,46.81,102.96z"/>
		</g>
	</g>
</g>
</svg>
